<?xml version="1.0" standalone="no"?><!DOCTYPE svg PUBLIC "-//W3C//DTD SVG 1.1//EN" "http://www.w3.org/Graphics/SVG/1.1/DTD/svg11.dtd"><svg t="1780223551753" class="icon" viewBox="0 0 1024 1024" version="1.1" xmlns="http://www.w3.org/2000/svg" p-id="1768" xmlns:xlink="http://www.w3.org/1999/xlink" width="200" height="200"><path d="M511.964 674.932a119.96 119.96 0 0 1-56.612-14.252l-294.692-158.272v303.268a169.796 169.796 0 0 0 169.8 169.796h363.108a169.8 169.8 0 0 0 169.8-169.796v-303.268l-294.8 158.288a119.956 119.956 0 0 1-56.604 14.236z" fill="#005DFF" p-id="1769"></path><path d="M1008.404 356.148a27.768 27.768 0 0 0 0-48.98L540.068 55.636a59.34 59.34 0 0 0-56.208 0L15.52 307.168a27.752 27.752 0 0 0 0 48.88l468.34 251.636a59.36 59.36 0 0 0 56.208 0l372.4-200.044v172.34a74.532 74.532 0 0 0 0 101.776v69.26a40.148 40.148 0 0 0 80.3 0v-69.26a74.544 74.544 0 0 0 0-101.776v-215.4z" fill="#005DFF" p-id="1770"></path></svg>