<?xml version="1.0" standalone="no"?><!DOCTYPE svg PUBLIC "-//W3C//DTD SVG 1.1//EN" "http://www.w3.org/Graphics/SVG/1.1/DTD/svg11.dtd"><svg t="1780236209448" class="icon" viewBox="0 0 1024 1024" version="1.1" xmlns="http://www.w3.org/2000/svg" p-id="1769" xmlns:xlink="http://www.w3.org/1999/xlink" width="200" height="200"><path d="M564.28 801.512l71.464-211.844a33.696 33.696 0 1 0-63.808-21.692l-56.8 167.176c-30-37.648-74.656-67.636-127.6-84.228a143.076 143.076 0 0 0 35.096-93.796 145.484 145.484 0 1 0-290.964 0.636 143.084 143.084 0 0 0 40.2 99.54c-89.972 34.456-151.864 107.2-151.864 191.424a178.228 178.228 0 0 0 31.904 100.8s28.076 44.664 68.912 44.664h335.628c33.2 0 68.912-44.664 68.912-44.664a178.228 178.228 0 0 0 31.904-100.8 187.564 187.564 0 0 0-3.2-32.54 50.184 50.184 0 0 0 10.208-14.676z" fill="#005DFF" p-id="1770"></path><path d="M651.148 310.644c-16.308 33.472-19.6 62.716-7.864 74.448s40.988 8.444 74.452-7.868a358.768 358.768 0 0 1-66.588-66.58z" fill="#005DFF" p-id="1771"></path><path d="M682.228 210.812a354.936 354.936 0 0 1 35.52-31.116c-32.5-15.892-60.672-19.484-73.292-8.928l-1.26 1.168c-11.632 11.78-8.328 40.968 7.948 74.36a355.232 355.232 0 0 1 31.084-35.484z" fill="#005DFF" p-id="1772"></path><path d="M829.776 278.484a320.688 320.688 0 0 0-79.84-79.828 310.8 310.8 0 0 0-39.508 32.4l-9.048 9.076a310.18 310.18 0 0 0-31.324 38.376 321.412 321.412 0 0 0 79.84 79.828 321.368 321.368 0 0 0 79.88-79.868zM751.16 321.836a42.1 42.1 0 1 1 42.096-42.1 42.144 42.144 0 0 1-42.096 42.1z" fill="#005DFF" p-id="1773"></path><path d="M751.156 268.912a10.828 10.828 0 1 0 10.824 10.82 10.84 10.84 0 0 0-10.824-10.82z" fill="#005DFF" p-id="1774"></path><path d="M782.084 179.736a359.356 359.356 0 0 1 66.568 66.584c16.316-33.476 19.6-62.728 7.864-74.468s-40.98-8.42-74.432 7.884z" fill="#005DFF" p-id="1775"></path><path d="M817.532 346.112a354.4 354.4 0 0 1-35.488 31.108c33.476 16.312 62.732 19.6 74.468 7.872s8.444-40.996-7.872-74.464a354.624 354.624 0 0 1-31.108 35.484z" fill="#005DFF" p-id="1776"></path><path d="M819.508 32.004H272.04a185.172 185.172 0 0 0-185.04 185.04v262.248a208.656 208.656 0 0 1 402 78.484 192.684 192.684 0 0 1-10.212 63.172l9.572 5.74 26.8-78.48a96.8 96.8 0 0 1 91.884-65.724 103.568 103.568 0 0 1 31.264 5.104 96.8 96.8 0 0 1 60.616 122.512l-71.464 211.84a78.048 78.048 0 0 1-4.464 10.848 139.312 139.312 0 0 1 0.636 15.952 244.256 244.256 0 0 1-34.456 123.148h230.344a185.172 185.172 0 0 0 185.044-185.04V217.044a185.6 185.6 0 0 0-185.056-185.04z m61.172 377.26c-25.704 25.712-75.6 21.644-130.8-10.444-31.044 18.06-60.42 27.244-84.756 27.248-18.924 0-34.8-5.556-46.036-16.8-25.708-25.708-21.644-75.6 10.44-130.8-32.084-55.2-36.144-105.08-10.44-130.8s75.6-21.656 130.8 10.432c55.176-32.076 105.072-36.14 130.8-10.432s21.66 75.6-10.436 130.8c32.088 55.184 36.148 105.084 10.428 130.796z" fill="#005DFF" p-id="1777"></path></svg>