<?xml version="1.0" standalone="no"?><!DOCTYPE svg PUBLIC "-//W3C//DTD SVG 1.1//EN" "http://www.w3.org/Graphics/SVG/1.1/DTD/svg11.dtd"><svg t="1780236170671" class="icon" viewBox="0 0 1024 1024" version="1.1" xmlns="http://www.w3.org/2000/svg" p-id="1612" xmlns:xlink="http://www.w3.org/1999/xlink" width="200" height="200"><path d="M564.312 802.108l71.888-213.092a33.9 33.9 0 0 0-64.188-21.824l-57.124 168.164c-30.164-37.868-75.096-68.036-128.368-84.724a143.908 143.908 0 0 0 35.3-94.352 146.344 146.344 0 1 0-292.684 0.644 143.952 143.952 0 0 0 40.44 100.128c-90.504 34.66-152.76 107.828-152.76 192.552a179.3 179.3 0 0 0 32.092 101.416s28.24 44.928 69.32 44.928h337.6c33.376 0 69.32-44.928 69.32-44.928a179.304 179.304 0 0 0 32.092-101.416 188.712 188.712 0 0 0-3.2-32.732 50.504 50.504 0 0 0 10.268-14.764z" fill="#005DFF" p-id="1613"></path><path d="M821.052 28.04H270.344a186.268 186.268 0 0 0-186.136 186.136v263.8a209.888 209.888 0 0 1 404.364 78.948 193.832 193.832 0 0 1-10.268 63.54l9.628 5.78 26.956-78.948a97.364 97.364 0 0 1 92.42-66.112 104.164 104.164 0 0 1 31.452 5.136 97.36 97.36 0 0 1 60.972 123.232l-71.884 213.096a78 78 0 0 1-4.496 10.912 139.04 139.04 0 0 1 0.644 16.048 245.708 245.708 0 0 1-34.66 123.876h231.708a186.272 186.272 0 0 0 186.136-186.136V214.176A186.68 186.68 0 0 0 821.052 28.04z m-89.564 353.2l-114.828-0.04c-5.132-0.256-14.236-14.56-14.452-22.536V165.568h10.228v185.08c45.2 7.352 85.956 14 126.868 20.656 0.004 0.012-4.68 9.852-7.816 9.924z m14.428-183.424l-0.036 162.136c-56.98-21.976-116.676-17.316-116.676-17.316l0.096-16s-0.096-124.108-0.096-191.496c26.4 2.8 49.66 3.928 72.36 8.028 29.456 5.288 45.772 19.596 44.352 54.636z m13.636 0c-1.42-35.04 14.892-49.348 44.344-54.66 22.708-4.1 45.952-5.224 72.36-8.028 0 67.388-0.092 191.496-0.092 191.496l0.092 16s-59.692-4.66-116.668 17.316zM888.396 381.2l-115.42 0.04c-3.128-0.072-7.82-9.912-7.82-9.912 40.912-6.656 82.24-13.308 127.46-20.66V165.572h9.736l0.028 193.092c-0.216 7.984-8.844 22.268-13.984 22.524z" fill="#005DFF" p-id="1614"></path></svg>