<?xml version="1.0" encoding="UTF-8"?>
<svg version="1.1" xmlns="http://www.w3.org/2000/svg" width="580" height="164">
<path d="M0 0 C15.91616681 -1.03178032 15.91616681 -1.03178032 20.3125 2.4375 C27.32915595 10.18696597 27.35852038 22.27465894 27.28125 32.09765625 C26.6686464 40.59753125 24.15209901 48.00979833 18 54 C15.6479994 55.1760003 14.26265599 55.12084541 11.64208984 55.11352539 C10.29091568 55.11341209 10.29091568 55.11341209 8.91244507 55.11329651 C7.93844757 55.10813522 6.96445007 55.10297394 5.9609375 55.09765625 C4.96494537 55.0962413 3.96895325 55.09482635 2.94277954 55.09336853 C-0.24651053 55.08775936 -3.43573106 55.0752053 -6.625 55.0625 C-8.78385315 55.05748618 -10.94270741 55.05292307 -13.1015625 55.04882812 C-18.4010655 55.03778695 -23.70052778 55.02103988 -29 55 C-29 55.99 -29 56.98 -29 58 C-20.09 58 -11.18 58 -2 58 C-1.59511076 72.44104974 -1.59511076 72.44104974 -5 77 C-12.65922289 84.44038795 -23.0173371 85.36697616 -33.21875 85.28125 C-41.84606004 84.63954925 -49.95412227 82.38175983 -56 76 C-57.55809664 72.88380671 -57.20493878 69.56342178 -57.23828125 66.140625 C-57.246353 65.35862732 -57.25442474 64.57662964 -57.26274109 63.77093506 C-57.2765822 62.11326311 -57.28730424 60.45556265 -57.29516602 58.79785156 C-57.31233991 56.27353121 -57.35621865 53.75053414 -57.40039062 51.2265625 C-57.4105213 49.61459295 -57.41903623 48.00261227 -57.42578125 46.390625 C-57.44328934 45.64041077 -57.46079742 44.89019653 -57.47883606 44.11724854 C-57.45747852 38.90600936 -56.3875557 35.94654038 -53 32 C-49.00993207 28.74818253 -45.32162332 28.58476249 -40.35546875 28.62890625 C-38.85872174 28.61151821 -37.361977 28.59393389 -35.86523438 28.57617188 C-33.52852047 28.56613045 -31.19195913 28.56249673 -28.85522461 28.56420898 C-16.8212648 28.73633347 -16.8212648 28.73633347 -6 24 C-1.20976424 18.96411112 -0.79463511 14.51610163 -0.4375 7.8125 C-0.37272461 6.68811523 -0.37272461 6.68811523 -0.30664062 5.54101562 C-0.20077315 3.69421625 -0.0999024 1.84713166 0 0 Z " fill="#FFDE58" transform="translate(100,49)"/>
<path d="M0 0 C1.02416016 -0.01160156 2.04832031 -0.02320312 3.10351562 -0.03515625 C10.80811673 -0.00561784 17.31616581 1.06351009 23.875 5.25 C29.48350101 11.02845558 28.30972563 18.95572684 28.30810547 26.46679688 C28.31247391 28.73644332 28.348815 31.00413515 28.38671875 33.2734375 C28.392589 34.73176425 28.396557 36.19010015 28.3984375 37.6484375 C28.40665527 38.96247559 28.41487305 40.27651367 28.42333984 41.63037109 C27.71844293 47.06339066 25.95934359 50.67358397 21.6652832 54.28710938 C18.17889377 55.67754626 14.98928473 55.79736918 11.29296875 55.78125 C10.56435135 55.79208618 9.83573395 55.80292236 9.08503723 55.81408691 C6.76493436 55.84821223 4.4453202 55.86390376 2.125 55.875 C-0.9236392 55.88967993 -3.97120748 55.92359245 -7.01953125 55.96875 C-7.70626419 55.96572876 -8.39299713 55.96270752 -9.10054016 55.95959473 C-15.28256267 56.05373696 -20.96402966 57.27652966 -25.4375 61.75 C-28.57559647 66.81923276 -29.41629568 71.28315597 -29.6875 77.1875 C-29.72617187 77.88037109 -29.76484375 78.57324219 -29.8046875 79.28710938 C-29.89823568 80.98267015 -29.98142364 82.67879712 -30.0625 84.375 C-32.43875177 84.48383596 -34.80993976 84.56266696 -37.1875 84.625 C-37.85265625 84.65851563 -38.5178125 84.69203125 -39.203125 84.7265625 C-44.34402711 84.8273645 -47.17567676 83.69511411 -51.0625 80.375 C-52.48828125 78.15625 -52.48828125 78.15625 -53.375 75.875 C-53.68050781 75.1221875 -53.98601563 74.369375 -54.30078125 73.59375 C-57.97254673 62.89855619 -57.94524338 47.7393357 -53.33984375 37.4140625 C-50.73667603 33.25854705 -47.76089659 30.9411322 -43.0625 29.375 C-41.63531363 29.28889486 -40.20443352 29.25728172 -38.7746582 29.26147461 C-37.91399246 29.26155014 -37.05332672 29.26162567 -36.1665802 29.26170349 C-35.24149155 29.26686478 -34.31640289 29.27202606 -33.36328125 29.27734375 C-32.41309616 29.2787587 -31.46291107 29.28017365 -30.4839325 29.28163147 C-27.44758971 29.28723125 -24.41132052 29.29978368 -21.375 29.3125 C-19.31705836 29.31751503 -17.25911556 29.32207793 -15.20117188 29.32617188 C-10.15491954 29.3372006 -5.10872225 29.35446507 -0.0625 29.375 C-0.0625 28.385 -0.0625 27.395 -0.0625 26.375 C-8.9725 26.375 -17.8825 26.375 -27.0625 26.375 C-27.165625 23.508125 -27.26875 20.64125 -27.375 17.6875 C-27.44328003 16.34619019 -27.44328003 16.34619019 -27.51293945 14.9777832 C-27.58241857 10.98071686 -27.40244628 8.89438184 -25.16796875 5.48046875 C-17.42822252 0.23301816 -9.11127006 -0.10360257 0 0 Z " fill="#3D79AA" transform="translate(70.0625,19.625)"/>
<path d="M0 0 C6.20866206 4.61669743 9.04299872 10.80689206 10.67578125 18.24609375 C11.95912387 29.32336686 11.17622685 39.51633295 4.30078125 48.68359375 C-0.62066446 53.48786218 -4.96234688 54.66285038 -11.76171875 54.62109375 C-13.01855469 54.62882812 -14.27539062 54.6365625 -15.5703125 54.64453125 C-19.32421875 54.24609375 -19.32421875 54.24609375 -26.32421875 51.24609375 C-26.65421875 61.14609375 -26.98421875 71.04609375 -27.32421875 81.24609375 C-36.32421875 79.24609375 -36.32421875 79.24609375 -37.32421875 78.24609375 C-37.44494688 76.02863907 -37.49451043 73.80729387 -37.51708984 71.58666992 C-37.52935608 70.54270302 -37.52935608 70.54270302 -37.54187012 69.47764587 C-37.56676719 67.16479362 -37.58325164 64.85200294 -37.59765625 62.5390625 C-37.60297993 61.75062769 -37.6083036 60.96219288 -37.6137886 60.1498661 C-37.64053994 55.97614132 -37.65990774 51.80244663 -37.67431641 47.62866211 C-37.69096243 43.31399369 -37.7357331 39.00008943 -37.78668785 34.68570995 C-37.82032401 31.37172048 -37.83188983 28.05791305 -37.83754349 24.74376869 C-37.84426698 23.15330483 -37.8595177 21.5628534 -37.8834343 19.97255516 C-37.91501179 17.7456357 -37.91513521 15.52078519 -37.90771484 13.29370117 C-37.9158017 12.02652756 -37.92388855 10.75935394 -37.93222046 9.45378113 C-37.32421875 6.24609375 -37.32421875 6.24609375 -34.93032837 3.88252258 C-32.59250856 2.41455834 -30.35637876 1.15081066 -27.82421875 0.05859375 C-27.09203125 -0.26496094 -26.35984375 -0.58851562 -25.60546875 -0.921875 C-17.53180835 -3.86654909 -7.54538644 -4.51473433 0 0 Z M-27.32421875 8.24609375 C-27.32421875 19.79609375 -27.32421875 31.34609375 -27.32421875 43.24609375 C-18.81515383 47.34722299 -18.81515383 47.34722299 -10.32421875 47.24609375 C-5.39168337 44.82635941 -3.29826835 42.33706377 -1.32421875 37.24609375 C0.80939912 28.32369177 0.58166205 18.64219971 -3.32421875 10.24609375 C-5.55985223 7.5742391 -7.22890238 5.79375194 -10.32421875 4.24609375 C-17.691661 3.59982689 -19.89142659 4.94263057 -27.32421875 8.24609375 Z " fill="#DBDBDB" transform="translate(195.32421875,49.75390625)"/>
<path d="M0 0 C0.01981934 1.21059082 0.03963867 2.42118164 0.06005859 3.66845703 C0.13633336 8.1750104 0.2250168 12.68125009 0.31738281 17.1875 C0.35558233 19.13502798 0.39045075 21.08262435 0.421875 23.03027344 C0.46772196 25.83553446 0.52568366 28.64032839 0.5859375 31.4453125 C0.59748871 32.31116974 0.60903992 33.17702698 0.62094116 34.06912231 C0.73330826 38.70863621 1.03573156 42.70490081 3 47 C7.5487245 49.38266521 11.94716877 49.37707696 17 49 C19.97 48.01 22.94 47.02 26 46 C26 31.15 26 16.3 26 1 C29.3 1 32.6 1 36 1 C36.0697286 9.2063652 36.12292659 17.41260514 36.15543652 25.61919403 C36.17104525 29.43048114 36.1921949 33.2415645 36.22631836 37.05273438 C36.2590842 40.73562096 36.276889 44.41831244 36.28463173 48.10133362 C36.29014453 49.50146045 36.30090926 50.90157746 36.31719017 52.30162048 C36.41760976 61.30068741 35.92146536 67.76570791 31.5 75.6875 C24.43459977 82.22299521 15.34170072 84.1831706 6 84 C5.34 81.69 4.68 79.38 4 77 C4.95261719 76.81824219 5.90523437 76.63648437 6.88671875 76.44921875 C8.14097656 76.19785156 9.39523438 75.94648437 10.6875 75.6875 C11.92886719 75.44386719 13.17023438 75.20023437 14.44921875 74.94921875 C17.87543326 74.03330002 20.19930879 73.15515984 23 71 C25.86145078 65.89170583 26.47760546 59.74633992 27 54 C26.45214844 54.2165625 25.90429688 54.433125 25.33984375 54.65625 C17.24898825 57.49791632 7.59860107 59.0932455 -0.6328125 56.015625 C-5.28091576 53.23705405 -8.27116774 50.18649679 -10 45 C-10.08589303 43.60344541 -10.11772715 42.20314223 -10.11352539 40.80395508 C-10.11344986 39.96331009 -10.11337433 39.1226651 -10.11329651 38.25654602 C-10.10813522 37.35333115 -10.10297394 36.45011627 -10.09765625 35.51953125 C-10.0962413 34.59154221 -10.09482635 33.66355316 -10.09336853 32.70744324 C-10.08776937 29.74242942 -10.07521704 26.77749101 -10.0625 23.8125 C-10.05748489 21.80273547 -10.052922 19.79296975 -10.04882812 17.78320312 C-10.03780021 12.85543968 -10.02053617 7.92773263 -10 3 C-8.70990357 2.49596232 -7.41786211 1.99690074 -6.125 1.5 C-5.04605469 1.08234375 -5.04605469 1.08234375 -3.9453125 0.65625 C-2 0 -2 0 0 0 Z " fill="#DBDBDB" transform="translate(225,47)"/>
<path d="M0 0 C0 11.88 0 23.76 0 36 C2.97 34.68 5.94 33.36 9 32 C15.1606844 30.4598289 22.07531137 29.59333952 27.9375 32.5625 C32.00309669 35.79838308 34.5766764 39.15295814 35.34558105 44.32418823 C35.46107266 46.99494782 35.45018942 49.63602561 35.390625 52.30859375 C35.38496521 53.27531509 35.37930542 54.24203644 35.37347412 55.23805237 C35.35120531 58.30505319 35.30102649 61.37085636 35.25 64.4375 C35.22992273 66.52537367 35.21167412 68.61326578 35.1953125 70.70117188 C35.15137159 75.80123792 35.08240983 80.90041638 35 86 C31.7 86 28.4 86 25 86 C24.9906543 84.81970215 24.98130859 83.6394043 24.97167969 82.42333984 C24.93169352 78.02843002 24.86591085 73.63421387 24.79248047 69.23974609 C24.7643208 67.34074846 24.74308142 65.4416347 24.72900391 63.54248047 C24.70750482 60.80636362 24.66081992 58.07163548 24.609375 55.3359375 C24.60814636 54.49195404 24.60691772 53.64797058 24.60565186 52.77841187 C24.47384168 47.42825146 23.64239963 44.19131073 20 40 C15.43460546 38.38868428 12.55698141 38.95664622 8.25 40.8125 C5.65866541 42.06739455 3.40713266 43.39524489 1 45 C0.5267707 46.84725228 0.5267707 46.84725228 0.56762695 48.99072266 C0.54783279 49.81142242 0.52803864 50.63212219 0.50764465 51.47769165 C0.49805977 52.80744522 0.49805977 52.80744522 0.48828125 54.1640625 C0.47033005 55.07127045 0.45237885 55.97847839 0.43388367 56.91317749 C0.37960573 59.81707072 0.34582927 62.720798 0.3125 65.625 C0.27934233 67.59116902 0.24485413 69.55731609 0.20898438 71.5234375 C0.12386935 76.34883888 0.05714194 81.17418955 0 86 C-3.3 86 -6.6 86 -10 86 C-10 58.28 -10 30.56 -10 2 C-4 0 -4 0 0 0 Z " fill="#E2E2E2" transform="translate(316,17)"/>
<path d="M0 0 C0.72883392 0.00027191 1.45766785 0.00054382 2.20858765 0.00082397 C39.59229895 0.06495226 39.59229895 0.06495226 50.9375 7.1875 C51.4325 8.6725 51.4325 8.6725 51.9375 10.1875 C46.64254982 16.50902216 35.87759824 17.39965015 28.11328125 18.2890625 C27.38131027 18.37322922 26.64933929 18.45739594 25.89518738 18.54411316 C17.5188467 19.43447938 9.16621595 19.53896954 0.75 19.5 C-0.0514444 19.49850952 -0.85288879 19.49701904 -1.67861938 19.4954834 C-11.42364864 19.46302379 -21.07647573 19.23505239 -30.75 17.9375 C-31.57201904 17.82833252 -32.39403809 17.71916504 -33.2409668 17.60668945 C-39.05275181 16.6793093 -44.91359307 15.09744466 -50.0625 12.1875 C-50.3925 11.1975 -50.7225 10.2075 -51.0625 9.1875 C-40.67297433 -2.43193837 -14.13093621 -0.01980103 0 0 Z " fill="#000000" transform="translate(67.0625,139.8125)"/>
<path d="M0 0 C5.47819975 4.57032484 8.83310005 9.95654987 10 17 C10.89990841 27.92564853 9.97398197 37.23270838 3 46 C-3.11976333 52.08595248 -8.68054793 53.50793628 -17.18920898 53.49755859 C-23.70722557 53.27703911 -28.27909501 51.47429055 -33 47 C-40.49024556 37.23812259 -41.21325509 26.95029058 -40 15 C-38.01573343 7.49873057 -33.3246642 2.32143391 -27 -2 C-18.59223606 -6.29730157 -7.87858337 -4.764731 0 0 Z M-24 6 C-29.51183558 12.40564676 -30.23090881 18.87486236 -29.875 27 C-29.20641937 34.2610966 -27.71023089 39.14327014 -22.6875 44.4375 C-19.30207185 46.40577218 -16.91702755 46.93128022 -13 47 C-8.3039088 45.34255605 -5.66605972 43.18952241 -3 39 C-0.18543638 30.71771782 0.59489127 20.82436637 -2.125 12.375 C-4.97342634 7.24783259 -7.63240062 4.68875618 -13.4375 3 C-17.79593296 3 -20.23900261 3.80017134 -24 6 Z " fill="#DEDEDE" transform="translate(399,51)"/>
<path d="M0 0 C3.04057572 2.64397889 4.72372114 4.17116342 6 8 C6.08650584 9.48844716 6.11770173 10.98048257 6.11352539 12.47143555 C6.11344986 13.37214279 6.11337433 14.27285004 6.11329651 15.20085144 C6.10813522 16.16968765 6.10297394 17.13852386 6.09765625 18.13671875 C6.0962413 19.13129593 6.09482635 20.12587311 6.09336853 21.15058899 C6.08776761 24.32958982 6.07521496 27.50852043 6.0625 30.6875 C6.05748512 32.84179586 6.05292219 34.99609282 6.04882812 37.15039062 C6.03779787 42.43362084 6.02053262 47.71679851 6 53 C2.7 53 -0.6 53 -4 53 C-4.029729 51.22955322 -4.029729 51.22955322 -4.06005859 49.42333984 C-4.13634656 45.02859799 -4.22502784 40.63417724 -4.31738281 36.23974609 C-4.35557692 34.34072222 -4.39044625 32.44162836 -4.421875 30.54248047 C-4.46773387 27.80671237 -4.52569337 25.07142208 -4.5859375 22.3359375 C-4.59748871 21.49195404 -4.60903992 20.64797058 -4.62094116 19.77841187 C-4.73486408 15.189449 -5.06637816 11.25131357 -7 7 C-11.311569 4.74155909 -16.20347717 4.21603405 -21 5 C-24.465 6.485 -24.465 6.485 -28 8 C-28.33 22.85 -28.66 37.7 -29 53 C-32.3 53 -35.6 53 -39 53 C-39.22285085 46.41656688 -39.38596213 39.83533691 -39.49438477 33.24902344 C-39.53958591 31.01002762 -39.6009619 28.77129662 -39.67895508 26.53320312 C-39.78842851 23.31053415 -39.83922558 20.0913793 -39.87890625 16.8671875 C-39.9485836 15.37153763 -39.9485836 15.37153763 -40.01966858 13.84567261 C-40.02175093 10.96460006 -39.9203803 8.73336431 -39 6 C-29.62914339 -3.37209502 -11.5671292 -6.84585198 0 0 Z " fill="#E0E0E0" transform="translate(455,50)"/>
<path d="M0 0 C0 5.94 0 11.88 0 18 C3.63 18 7.26 18 11 18 C11 20.31 11 22.62 11 25 C7.37 25 3.74 25 0 25 C0.09406385 29.71428123 0.20027064 34.42808061 0.31738281 39.1418457 C0.35549419 40.74300796 0.39037713 42.34425063 0.421875 43.94555664 C0.46791611 46.25696414 0.52584208 48.56782644 0.5859375 50.87890625 C0.59748871 51.58648575 0.60903992 52.29406525 0.62094116 53.02308655 C0.757677 57.70381127 1.56380086 61.58809704 3 66 C5.64 66.66 8.28 67.32 11 68 C11 69.98 11 71.96 11 74 C4.96346301 74.3221077 0.16754855 74.56806924 -5 71 C-10.38635122 65.46807172 -10.14773537 60.02688203 -10.09765625 52.63671875 C-10.0962413 51.84473587 -10.09482635 51.05275299 -10.09336853 50.23677063 C-10.08779457 47.72030781 -10.07524693 45.20393569 -10.0625 42.6875 C-10.05748163 40.97591275 -10.05291931 39.26432409 -10.04882812 37.55273438 C-10.03783368 33.36845492 -10.02058707 29.18424281 -10 25 C-11.98 25 -13.96 25 -16 25 C-16 22.69 -16 20.38 -16 18 C-14.02 18 -12.04 18 -10 18 C-10 13.05 -10 8.1 -10 3 C-1.125 0 -1.125 0 0 0 Z " fill="#E1E1E1" transform="translate(286,30)"/>
<path d="M0 0 C4.29 0 8.58 0 13 0 C13.99 1.98 14.98 3.96 16 6 C16.66 4.02 17.32 2.04 18 0 C18.99 0 19.98 0 21 0 C21 3.96 21 7.92 21 12 C17.33333333 12 13.66666667 12 10 12 C10 8.7 10 5.4 10 2 C8.68 2 7.36 2 6 2 C6 5.3 6 8.6 6 12 C5.01 12 4.02 12 3 12 C3 8.7 3 5.4 3 2 C2.01 2 1.02 2 0 2 C0 1.34 0 0.68 0 0 Z " fill="#E8E8E8" transform="translate(474,29)"/>
<path d="M0 0 C3 0.25 3 0.25 5 2.25 C5.36796448 5.12012296 5.37509409 6.65774618 3.8125 9.125 C2 10.25 2 10.25 -0.5625 10.0625 C-3 9.25 -3 9.25 -5 7.25 C-5.25 4.75 -5.25 4.75 -5 2.25 C-3 0.25 -3 0.25 0 0 Z " fill="#F8FAFC" transform="translate(55,28.75)"/>
<path d="M0 0 C2.375 0.6875 2.375 0.6875 3.375 1.6875 C3.5 5.1875 3.5 5.1875 3.375 8.6875 C2.375 9.6875 2.375 9.6875 -1.125 9.8125 C-4.625 9.6875 -4.625 9.6875 -5.625 8.6875 C-5.875 5.25 -5.875 5.25 -5.625 1.6875 C-2.625 -0.3125 -2.625 -0.3125 0 0 Z " fill="#FFFDF6" transform="translate(86.625,114.3125)"/>
</svg>
